<?xml version="1.0" encoding="UTF-8"?>
<svg width="214px" height="162px" viewBox="0 0 214 162" version="1.1"
  xmlns="http://www.w3.org/2000/svg"
  xmlns:xlink="http://www.w3.org/1999/xlink">
  <!-- Generator: Sketch 55.2 (78181) - https://sketchapp.com -->
  <title>illustration</title>
  <desc>Created with Sketch.</desc>
  <defs>
    <path d="M4,0 L39,0 C41.209139,-4.05812251e-16 43,1.790861 43,4 L43,30 L29,44 L4,44 C1.790861,44 2.705415e-16,42.209139 0,40 L0,4 C-2.705415e-16,1.790861 1.790861,4.05812251e-16 4,0 Z" id="path-1"></path>
  </defs>
  <g id="Page-1" stroke="none" stroke-width="1" fill="none" fill-rule="evenodd">
    <g id="illustration">
      <rect id="Rectangle" x="0" y="0" width="202" height="160"></rect>
      <path d="M7,104 L34.9968893,104 C37.8925906,104 40.2380849,106.446764 40.2380849,109.464632 L40.4072841,120.536192 C40.4072841,123.553236 42.7543595,126 45.6492703,126 L77,126" id="Stroke-1" stroke="#FFB400" stroke-width="0.6" stroke-linecap="round" stroke-linejoin="round" transform="translate(42.000000, 115.000000) scale(-1, 1) rotate(90.000000) translate(-42.000000, -115.000000) "></path>
      <g id="phone" transform="translate(19.000000, 36.000000)">
        <path d="M18.3895082,42 L5.6104918,42 C2.5117377,42 0,39.4552219 0,36.3157056 L0,5.68429445 C0,2.5447781 2.5117377,0 5.6104918,0 L18.3895082,0 C21.4882623,0 24,2.5447781 24,5.68429445 L24,36.3157056 C24,39.4552219 21.4882623,42 18.3895082,42 Z" id="Stroke-5" stroke="#999999" stroke-width="0.6" fill="#FFFFFF"></path>
        <path d="M13.5,38.5 C13.5,39.3287879 12.8281999,40 12.0003787,40 C11.1718001,40 10.5,39.3287879 10.5,38.5 C10.5,37.6712121 11.1718001,37 12.0003787,37 C12.8281999,37 13.5,37.6712121 13.5,38.5" id="Fill-7" fill="#7AB0D6"></path>
      </g>
      <g id="board" transform="translate(112.000000, 42.000000)">
        <path d="M6.09268713,62 C2.72729408,62 0,59.2783948 0,55.9200216 L0,27.5850429 L0,6.07997841 C0,2.72240218 2.72729408,0 6.09268713,0 L95.9073129,0 C99.2719073,0 102,2.72240218 102,6.07997841 L102,55.9200216 C102,59.2783948 99.2719073,62 95.9073129,62 L6.09268713,62 Z" id="Stroke-20" stroke="#B3B3B3" stroke-width="0.6" stroke-linecap="round" stroke-linejoin="round"></path>
        <path d="M95.5908542,59 L6.40914577,59 C4.52635108,59 3,57.4735027 3,55.589723 L3,6.41027704 C3,4.52730199 4.52635108,3 6.40914577,3 L95.5908542,3 C97.4736489,3 99,4.52730199 99,6.41027704 L99,55.589723 C99,57.4735027 97.4736489,59 95.5908542,59" id="Fill-11" fill="#F2F2F2"></path>
      </g>
      <polygon id="Fill-22-Copy" fill="#FFFFFF" points="134 44 146 44 146 37 134 37"></polygon>
      <path d="M140,95.9164576 L90.4019219,96 C86.8663547,96 84,93.1015456 84,89.525395 L84,27.8542409 L84,26" id="Stroke-9" stroke="#FF3D67" stroke-width="0.6" stroke-linecap="round" stroke-linejoin="round" transform="translate(112.000000, 61.000000) rotate(-180.000000) translate(-112.000000, -61.000000) "></path>
      <path d="M162.99965,89 C171.836406,89 179,81.8364058 179,73.0003499 C179,64.1635942 171.836406,57 162.99965,57 C154.163594,57 147,64.1635942 147,73.0003499 C147,81.8364058 154.163594,89 162.99965,89 Z" id="Clip-15" fill="#2BC852"></path>
      <path d="M158.49747,69 C157.672462,69 157,69.669663 157,70.4960706 L157,70.4960706 L157,76.5034449 C157,77.3235547 157.670363,77.9995156 158.49747,77.9995156 L158.49747,77.9995156 L165.501992,77.9995156 C166.327699,77.9995156 167.000161,77.3298525 167.000161,76.5034449 L167.000161,76.5034449 L167.000161,74.4041877 L167.000161,73.6967381 L167.000161,73.3062762 L167.000161,72.5988266 L167.000161,70.4960706 C167.000161,69.6766606 166.329099,69 165.501992,69 L165.501992,69 L158.49747,69 Z M157.500323,76.5034449 L157.500323,70.4960706 C157.500323,69.946765 157.947465,69.4996232 158.49747,69.4996232 L158.49747,69.4996232 L165.501992,69.4996232 C166.050597,69.4996232 166.499139,69.9502638 166.499139,70.4960706 L166.499139,70.4960706 L166.499139,76.5034449 C166.499139,77.0534503 166.052697,77.4998923 165.501992,77.4998923 L165.501992,77.4998923 L158.49747,77.4998923 C157.948864,77.4998923 157.500323,77.0492518 157.500323,76.5034449 L157.500323,76.5034449 Z M168.910486,70.6885025 L167.000161,72.5988266 L167.000161,73.3062762 L167.000161,73.6967381 L167.000161,73.3062762 L169.26386,71.0418775 C169.32264,70.9830983 169.389116,71.0012919 169.415007,71.0110884 L169.415007,71.0110884 C169.440898,71.0222844 169.500377,71.0565723 169.500377,71.1398428 L169.500377,71.1398428 L169.500377,75.8624717 C169.500377,75.946442 169.440898,75.9800301 169.415007,75.9905264 L169.415007,75.9905264 C169.389116,76.0017225 169.32264,76.019916 169.26386,75.9604371 L169.26386,75.9604371 L167.000161,73.6967381 L167.000161,74.4041877 L168.910486,76.3145118 C169.032242,76.4369685 169.195285,76.5013457 169.361826,76.5013457 L169.361826,76.5013457 C169.443697,76.5013457 169.526268,76.4859511 169.606039,76.4530628 L169.606039,76.4530628 C169.846054,76.3529982 170,76.1227796 170,75.8624717 L170,75.8624717 L170,71.1398428 C170,70.8809344 169.846054,70.6493164 169.606039,70.5499516 L169.606039,70.5499516 C169.526268,70.5170632 169.442997,70.5009689 169.360426,70.5009689 L169.360426,70.5009689 C169.194585,70.5009689 169.032242,70.5660459 168.910486,70.6885025 L168.910486,70.6885025 Z" id="Clip-18" stroke="#FFFFFF" stroke-width="0.2" fill="#FFFFFF"></path>
      <polygon id="Fill-22" fill="#FFFFFF" points="157 110 169 110 169 101 157 101"></polygon>
      <path d="M146,143 L156.005075,143 C159.868605,143 163,139.757922 163,135.757829 L163,82" id="Stroke-24" stroke="#2BC852" stroke-width="0.6" stroke-linecap="round" stroke-linejoin="round"></path>
      <path d="M54,107 L55.4291581,107 C56.2969713,107 57,107.644546 57,108.439463 C57,108.638546 56.9561088,108.827744 56.8760267,109" id="Stroke-26" stroke="#FFFFFF" stroke-width="0.6" stroke-linecap="round" stroke-linejoin="round"></path>
      <path d="M76.7080233,131.547776 L73.4407238,125.838996 C73.0957046,125.242437 72.5302566,124.803791 71.8697685,124.646676 L65.3048206,122.890496 C64.9278552,122.795589 64.613185,122.545162 64.4558498,122.167926 L63.4822888,120.066412 C63.3568999,119.75298 63.3249537,119.43875 63.419195,119.157218 C63.5134364,118.874092 63.4503426,118.56066 63.3249537,118.278331 L62.7595056,117.243126 C62.5087278,116.772578 62.6029692,116.176817 62.9168408,115.769275 C63.1053234,115.517253 63.1372697,115.204618 62.9799345,114.921492 L62.6972105,114.51395 C62.4144865,114.075303 62.3825403,113.510646 62.6029692,113.039301 L62.6029692,113.008197 C62.7595056,112.662863 62.5718216,112.224217 62.1940576,112.098206 L55.9741288,110.247916 C55.3152381,110.059697 54.8751789,109.400133 55.0317154,108.741366 C55.1890505,107.989287 55.9429813,107.51874 56.6657645,107.738063 L68.0378196,110.68736 C68.7286566,110.874782 69.1998633,110.028593 68.6663614,109.526144 L65.9014162,106.922181 C65.3048206,106.451633 65.2417268,105.573543 65.7440811,105.008886 C66.2152878,104.507234 67.0011648,104.507234 67.5354653,104.914777 L71.8386209,108.239714 C74.2266008,109.651358 75.922945,116.459146 83.0533409,126.96831 C83.5245476,127.627077 83.3680112,128.568172 82.7394693,129.069824 L79.0009631,131.98722 C78.2789786,132.582981 77.17923,132.36286 76.7080233,131.547776 Z" id="Stroke-29" stroke="#195072" stroke-width="0.6" stroke-linecap="round" stroke-linejoin="round"></path>
      <path d="M109.697765,89.8195269 C107.696334,86.0886419 103.75497,83.5508746 99.2194053,83.5508746 C92.6584507,83.5508746 87.340204,88.8616832 87.340204,95.4134616 C87.340204,101.96524 92.6584507,107.276049 99.2194053,107.276049 C102.583342,107.276049 105.620629,105.880356 107.781791,103.636083" id="Stroke-31" stroke="#195072" stroke-width="0.6" fill="#F2F2F2" stroke-linecap="round" stroke-linejoin="round"></path>
      <path d="M107.085762,54.1207483 C115.671309,55.080187 122.573289,62.0068086 123.508515,70.5835372 C123.783252,73.1005686 123.553239,75.5274781 122.908724,77.7813218 C122.451095,79.3851717 123.24975,81.1174252 124.839075,81.63104 C130.37775,83.4199187 134.311128,88.765819 133.918989,94.9786437 C133.50209,101.574287 128.040884,106.941721 121.430413,107.259938 C113.861555,107.624414 115.094679,100.250373 115.094679,92.7726523 C115.094679,91.7230917 107.747049,92.061248 107.979458,91.0818707 C105.230486,91.5332775 102.288239,91.4136467 99.2381737,90.423104 C92.1724689,88.1293834 86.9955842,81.8144738 86.3175257,74.4260775 C85.2345489,62.6025698 95.201769,52.7928467 107.085762,54.1207483" id="Fill-33" fill="#FFFFFF"></path>
      <path d="M107.085762,54.1207483 C115.671309,55.080187 122.573289,62.0068086 123.508515,70.5835372 C123.783252,73.1005686 123.553239,75.5274781 122.908724,77.7813218 C122.451095,79.3851717 123.24975,81.1174252 124.839075,81.63104 C130.37775,83.4199187 134.311128,88.765819 133.918989,94.9786437 C133.50209,101.574287 128.040884,106.941721 121.430413,107.259938 C113.861555,107.624414 115.094679,100.250373 115.094679,92.7726523 C115.094679,91.7230917 107.747049,92.061248 107.979458,91.0818707 C105.230486,91.5332775 102.288239,91.4136467 99.2381737,90.423104 C92.1724689,88.1293834 86.9955842,81.8144738 86.3175257,74.4260775 C85.2345489,62.6025698 95.201769,52.7928467 107.085762,54.1207483 Z" id="Stroke-34" stroke="#195072" stroke-width="0.6" stroke-linecap="round" stroke-linejoin="round"></path>
      <path d="M121.773595,99.1095739 C122.432486,98.5449166 123.203189,98.0879271 124.067334,97.773697 C127.923242,96.3716243 132.186465,98.3574951 133.590502,102.208011 L153.43709,150.190317 C153.901109,151.310061 152.617669,152.058152 151.339341,152.761821 C150.487123,153.230933 147.691829,154.560163 142.953459,156.749513 L127.857753,126.698822" id="Fill-35" fill="#F86627"></path>
      <path d="M105.541117,107.642705 L94.5295354,152.281946 C93.4724301,156.355944 89.2353185,158.736339 85.1999031,157.521367 C81.3825102,156.373363 79.1563634,152.418598 80.1575368,148.563933 L91.3145409,103.362403 C92.4986128,99.4391256 96.6430621,97.2166566 100.572262,98.398144 C104.500662,99.5812266 106.725189,103.719428 105.541117,107.642705" id="Fill-36" fill="#195072" transform="translate(92.888641, 127.960094) rotate(5.000000) translate(-92.888641, -127.960094) "></path>
      <path d="M93.631852,103.000764 C94.0423609,99.743617 96.814494,97.3007566 100.102559,97.3007566 L126.107579,97.3007566 C128.270338,97.3007566 130.023387,99.0513536 130.023387,101.211088 L127.414978,148.113527 L130.822042,160.81353 L91.9522795,160.81353 L95.5454305,147.107034 L93.631852,103.000764 Z" id="Fill-37" fill="#F86627"></path>
      <path d="M97.3131745,101.172806 L92.1147261,116.411373 C91.5372982,118.10694 92.0684041,119.98275 93.450078,121.124826 L97.3131745,124.315777" id="Fill-38" fill="#F86627"></path>
      <polyline id="Fill-86" fill="#FFFFFF" points="128 145.4 95 145.4 95 148.386782 128 148.386782"></polyline>
      <path d="M122.572251,96.5269848 C122.572251,103.161707 117.186118,108.540307 110.542104,108.540307 C103.89729,108.540307 98.5111577,103.161707 98.5111577,96.5269848" id="Stroke-40" stroke="#195072" stroke-width="0.6" fill="#FFFFFF" stroke-linecap="round" stroke-linejoin="round"></path>
      <polygon id="Fill-62" fill="#FFFFFF" points="105.281679 102.086227 113.268234 102.086227 113.268234 92.9145344 105.281679 92.9145344"></polygon>
      <path d="M105.330957,97.8704384 L105.330957,93.9569171" id="Stroke-64" stroke="#195072" stroke-width="0.6" stroke-linecap="round" stroke-linejoin="round"></path>
      <path d="M115.900603,91.5454798 L115.900603,99.2584743" id="Stroke-67" stroke="#195072" stroke-width="0.6" stroke-linecap="round" stroke-linejoin="round"></path>
      <path d="M103.315549,98.4553531 L100.602517,98.8094602" id="Stroke-88" stroke="#195072" stroke-width="0.6" stroke-linecap="round" stroke-linejoin="round"></path>
      <path d="M109.430295,92.5221454 L105.330797,93.9569171 L111.994778,95.9140765 C111.994778,95.9140765 109.86716,93.8013971 109.430295,92.5221454" id="Fill-98" fill="#195072"></path>
      <path d="M103.714158,58.9966592 L103.714158,58.9966592 C97.0118418,58.9966592 91.5282734,64.4725582 91.5282734,71.165501 L91.5282734,81.7879158 C91.5282734,88.4808586 97.0118418,93.9567576 103.714158,93.9567576 C106.692345,93.9567576 109.429337,92.8752955 111.552163,91.0864167" id="Stroke-43" stroke="#195072" stroke-width="0.6" fill="#FFFFFF" stroke-linecap="round" stroke-linejoin="round"></path>
      <path d="M115.900283,81.4349253 L115.900603,71.1656605" id="Stroke-46" stroke="#195072" stroke-width="0.6" stroke-linecap="round" stroke-linejoin="round"></path>
      <path d="M114.552153,64.2835416 C113.126553,61.6349164 110.697841,59.4408881 107.876192,58.0595515 C103.931632,56.1287109 99.2355382,56.1167478 95.4163677,58.2844573 C92.5068659,59.9353619 89.6572632,63.078461 89.8960612,69.0464413 L115.900283,73.1234579 L115.900283,70.2331786" id="Fill-53" stroke="#195072" stroke-width="0.6" fill="#FFFFFF" stroke-linecap="round" stroke-linejoin="round"></path>
      <path d="M104.299094,75.8346102 C104.299094,76.3761388 104.738354,76.814785 105.280641,76.814785 C105.822928,76.814785 106.262987,76.3761388 106.262987,75.8346102 C106.262987,75.292284 105.822928,74.8544354 105.280641,74.8544354 C104.738354,74.8544354 104.299094,75.292284 104.299094,75.8346102" id="Fill-51" fill="#195072"></path>
      <path d="M91.9230488,75.5573061 C91.9230488,76.0988347 92.3631079,76.5374808 92.9045963,76.5374808 C93.447682,76.5374808 93.8869425,76.0988347 93.8869425,75.5573061 C93.8869425,75.0157774 93.447682,74.5771313 92.9045963,74.5771313 C92.3631079,74.5771313 91.9230488,75.0157774 91.9230488,75.5573061" id="Fill-52" fill="#195072"></path>
      <path d="M99.6716839,75.8346102 C99.6716839,78.9274643 102.183455,81.4349253 105.280641,81.4349253 C108.378626,81.4349253 110.890397,78.9274643 110.890397,75.8346102 C110.890397,72.7409585 108.378626,70.2334976 105.280641,70.2334976 C102.183455,70.2334976 99.6716839,72.7409585 99.6716839,75.8346102 Z" id="Stroke-79" stroke="#FFB400" stroke-width="0.6" stroke-linecap="round" stroke-linejoin="round"></path>
      <path d="M86.8931965,75.8346102 C86.8931965,78.9274643 89.404968,81.4349253 92.5021538,81.4349253 C95.6001384,81.4349253 98.1119098,78.9274643 98.1119098,75.8346102 C98.1119098,72.7409585 95.6001384,70.2334976 92.5021538,70.2334976 C89.404968,70.2334976 86.8931965,72.7409585 86.8931965,75.8346102 Z" id="Stroke-80" stroke="#FFB400" stroke-width="0.6" stroke-linecap="round" stroke-linejoin="round"></path>
      <path d="M99.0602333,86.3427377 C99.0602333,86.3427377 102.953679,87.7264669 104.558976,84.1678503" id="Stroke-57" stroke="#195072" stroke-width="0.6" stroke-linecap="round" stroke-linejoin="round"></path>
      <polyline id="Stroke-60" stroke="#195072" stroke-width="0.6" stroke-linecap="round" stroke-linejoin="round" points="99.0555212 74.6795352 97.6898204 79.4209014 99.2975138 79.4209014"></polyline>
      <path d="M113.797902,74.0689398 C114.309042,73.6861213 114.943973,73.4588229 115.631615,73.4588229 C117.32157,73.4588229 118.691264,74.8266013 118.691264,76.5133952 C118.691264,78.2009866 117.32157,79.568765 115.631615,79.568765 C115.209925,79.568765 114.807403,79.4834284 114.441619,79.3287059" id="Stroke-71" stroke="#195072" stroke-width="0.6" fill="#FFFFFF" stroke-linecap="round" stroke-linejoin="round"></path>
      <path d="M115.888942,78.2871207 C115.642956,78.2871207 115.409749,78.2376733 115.197307,78.1475515" id="Stroke-74" stroke="#195072" stroke-width="0.6" stroke-linecap="round" stroke-linejoin="round"></path>
      <path d="M114.823536,75.0938565 C115.120636,74.8721408 115.489614,74.7405469 115.888942,74.7405469 C116.869691,74.7405469 117.665152,75.5340977 117.665152,76.5134749" id="Stroke-77" stroke="#195072" stroke-width="0.6" stroke-linecap="round" stroke-linejoin="round"></path>
      <path d="M116.371729,82.3161255 C112.221916,82.3161255 108.85718,85.6753575 108.85718,89.8201649 C108.85718,93.9641747 112.221916,97.3242043 116.371729,97.3242043 C116.479548,97.3242043 116.586568,97.3218117 116.69199,97.317824" id="Stroke-82" stroke="#195072" stroke-width="0.6" fill="#FFFFFF" stroke-linecap="round" stroke-linejoin="round"></path>
      <path d="M135.059788,153.663717 C135.059788,148.60174 139.16887,144.5 144.236339,144.5 C149.304607,144.5 153.412891,148.60174 153.412891,153.663717 C153.412891,155.33456 152.965643,156.900128 152.182961,158.248766" id="Stroke-90" stroke="#195072" stroke-width="0.6" stroke-linecap="round" stroke-linejoin="round"></path>
      <path d="M101.357166,152.606819 L101.400294,152.554979 L144.017348,146.166696 C148.12084,146.166696 151.44724,149.488444 151.44724,153.586196 C151.44724,157.683151 148.12084,161.004899 144.017348,161.004899 L94.4559846,161.004899 L94.4583805,161.001709 C92.6821708,161.002506 90.9035651,160.338157 89.5330723,158.99909 C86.7561472,156.283471 101.357166,152.606819 101.357166,152.606819 Z" id="Stroke-92" stroke="#195072" stroke-width="0.6" fill="#FFFFFF" stroke-linecap="round" stroke-linejoin="round"></path>
      <path d="M176,161 L96,161" id="Stroke-84" stroke="#195072" stroke-width="0.6" stroke-linecap="round" stroke-linejoin="round"></path>
      <path d="M7,161 L10.8037778,157.404946 C11.7557256,156.505234 13.0463934,156 14.3924443,156 L22.6413206,156 C24.0130565,156 25.3261986,156.524958 26.281357,157.454256 L29.9254067,161 L37,161" id="Stroke-85" stroke="#B3B3B3" stroke-width="0.6" stroke-linecap="round" stroke-linejoin="round"></path>
      <path d="M73.4445951,161 L41,161 L41,125.325905 C41,124.005927 41.7930919,123 43.1050214,123 L93.9559239,123 C95.2678535,123 96,124.005927 96,125.325905 L96,161 L72.2248855,161" id="Stroke-94" stroke="#B3B3B3" stroke-width="0.6" fill="#F5F5F5" stroke-linecap="round" stroke-linejoin="round"></path>
      <path d="M63.5,142.000413 C63.5,144.761453 65.738732,147 68.5,147 C71.261268,147 73.5,144.761453 73.5,142.000413 C73.5,139.238547 71.261268,137 68.5,137 C65.738732,137 63.5,139.238547 63.5,142.000413 Z" id="Stroke-97" stroke="#B3B3B3" stroke-width="0.6" fill="#FFFFFF" stroke-linecap="round" stroke-linejoin="round"></path>
      <g id="calendar" transform="translate(37.000000, 1.000000)">
        <g id="Stroke-5" transform="translate(0.000000, 4.000000)">
          <mask id="mask-2" fill="white">
            <use xlink:href="#path-1"></use>
          </mask>
          <use id="Mask" fill="#1973E7" xlink:href="#path-1"></use>
          <path d="M0.389508197,73 L-12.3895082,73 C-15.4882623,73 -18,70.4552219 -18,67.3157056 L-18,36.6842944 C-18,33.5447781 -15.4882623,31 -12.3895082,31 L0.389508197,31 C3.4882623,31 6,33.5447781 6,36.6842944 L6,67.3157056 C6,70.4552219 3.4882623,73 0.389508197,73 Z" stroke="#EBEBEC" stroke-width="0.6" mask="url(#mask-2)"></path>
        </g>
        <path d="M4,4 L39,4 C41.209139,4 43,5.790861 43,8 L43,17 L0,17 L0,8 C-2.705415e-16,5.790861 1.790861,4 4,4 Z" id="Rectangle" fill="#005073"></path>
        <path d="M31.5,5 L31.5,1.63916311 C31.5,0.733755709 32.1714607,0 33,0 C33.8285393,0 34.5,0.733755709 34.5,1.63916311 L34.5,5" id="Stroke-104" stroke="#9E9FA2" stroke-width="0.6"></path>
        <path d="M31.5,4 L31.5,8" id="Stroke-105" stroke="#FFFFFF" stroke-width="0.6"></path>
        <path d="M34.5,4 L34.5,8" id="Stroke-105-Copy" stroke="#FFFFFF" stroke-width="0.6"></path>
        <path d="M8.5,5 L8.5,1.63916311 C8.5,0.733755709 9.17146067,0 10,0 C10.8285393,0 11.5,0.733755709 11.5,1.63916311 L11.5,5" id="Stroke-104" stroke="#9E9FA2" stroke-width="0.6"></path>
        <path d="M8.5,4 L8.5,8" id="Stroke-105" stroke="#FFFFFF" stroke-width="0.6"></path>
        <path d="M11.5,4 L11.5,8" id="Stroke-105-Copy" stroke="#FFFFFF" stroke-width="0.6"></path>
        <text id="30" font-family="CiscoSans-ExtraLight, CiscoSans" font-size="24" font-weight="300" fill="#FFFFFF">
          <tspan x="7" y="39">30</tspan>
        </text>
        <path d="M34.8319705,34 C31.6108126,34 29,36.6108126 29,39.8319705 L29,48 L43,34 L34.8319705,34 Z" id="Fill-108" fill="#005073"></path>
      </g>
    </g>
  </g>
</svg>